<svg id="图层_1" data-name="图层 1" xmlns="http://www.w3.org/2000/svg" xmlns:xlink="http://www.w3.org/1999/xlink" viewBox="0 0 47.49 45.87"><defs><style>.cls-1{fill:none;}.cls-2{clip-path:url(#clip-path);}</style><clipPath id="clip-path" transform="translate(-2.9 -3.71)"><rect class="cls-1" x="-8.54" y="0.92" width="237.19" height="53.29"/></clipPath></defs><title>logo</title><g class="cls-2"><path d="M47.44,16.65a21.69,21.69,0,0,1,2.49,7.55,22.1,22.1,0,0,1-.48,8A18.91,18.91,0,0,1,46,39.58a17.6,17.6,0,0,1-2.85,2.89,15.68,15.68,0,0,1-3.41,2.14l-0.08-.12a33.08,33.08,0,0,0,5.14-5.8,25.46,25.46,0,0,0,3.47-6.78,21.66,21.66,0,0,0-1-15.19Z" transform="translate(-2.9 -3.71)"/><path d="M8.38,13.7a22.81,22.81,0,0,1,7.91-7.18,23.4,23.4,0,0,1,10.43-2.8,21.59,21.59,0,0,1,10.66,2.2,19.63,19.63,0,0,1,7.93,7.3l-0.12.09a27.09,27.09,0,0,0-8.46-6,25.26,25.26,0,0,0-10-2.35A22.74,22.74,0,0,0,8.5,13.79Z" transform="translate(-2.9 -3.71)"/><path d="M13.68,44.22a23,23,0,0,1-5.53-5.07,22,22,0,0,1-3.51-6.73,18.68,18.68,0,0,1-1-7.59,16.24,16.24,0,0,1,2.45-7.19L6.26,17.7a32.66,32.66,0,0,0-1.09,7.23,26.54,26.54,0,0,0,.62,7.16,21,21,0,0,0,3,6.62,22.49,22.49,0,0,0,5,5.38Z" transform="translate(-2.9 -3.71)"/><path d="M36.13,46.57a22.09,22.09,0,0,1-9.46,2.37,16,16,0,0,1-5-.43,12.43,12.43,0,0,1-4.44-2.21l0.06-.13c1.63,0.3,3.16.64,4.7,0.88s3.06,0.61,4.64.69a24.41,24.41,0,0,0,9.38-1.31Z" transform="translate(-2.9 -3.71)"/><path d="M37.13,6.78A26.93,26.93,0,0,1,42.5,4.48,12.58,12.58,0,0,1,45.42,4a5.46,5.46,0,0,1,3,.63,3.89,3.89,0,0,1,1.8,2.56,8.08,8.08,0,0,1,.06,3.06,21.67,21.67,0,0,1-1.86,5.66,54.78,54.78,0,0,1-6.27,10,89.09,89.09,0,0,1-7.81,8.77,84.11,84.11,0,0,1-8.93,7.63,48.86,48.86,0,0,1-10.2,5.89,17.76,17.76,0,0,1-5.79,1.45,7.84,7.84,0,0,1-1.54-.08l-0.77-.14-0.74-.28a4.19,4.19,0,0,1-2.21-2.21,6.55,6.55,0,0,1-.41-3l0.06-.75L4,42.4l0.15-.73L4.33,41a22.72,22.72,0,0,1,1-2.74c0.45-.87.84-1.76,1.33-2.6a31.64,31.64,0,0,0-2,5.44l-0.17.7-0.1.71-0.1.71v0.71a5.9,5.9,0,0,0,.51,2.68,3.43,3.43,0,0,0,1.87,1.74l0.63,0.22L8,48.61a6.85,6.85,0,0,0,1.37,0,16.79,16.79,0,0,0,5.4-1.57,52.18,52.18,0,0,0,9.8-6,85.7,85.7,0,0,0,8.72-7.56A91.32,91.32,0,0,0,41,25a59.44,59.44,0,0,0,6.35-9.58,20.61,20.61,0,0,0,2-5.31,7.21,7.21,0,0,0,.05-2.72A3.15,3.15,0,0,0,48,5.23a4.81,4.81,0,0,0-2.6-.69,12.11,12.11,0,0,0-2.83.32,31.36,31.36,0,0,0-5.47,1.91" transform="translate(-2.9 -3.71)"/><path d="M47.31,36.78a20,20,0,0,1,1.9,5.45,9.38,9.38,0,0,1,.09,2.94,5,5,0,0,1-1.24,2.76,4.77,4.77,0,0,1-2.74,1.39,9.13,9.13,0,0,1-3,0,21.17,21.17,0,0,1-5.59-1.85A73.65,73.65,0,0,1,18.14,33.64a86.33,86.33,0,0,1-7.66-8.72,50,50,0,0,1-6-10,18.18,18.18,0,0,1-1.55-5.7,6.32,6.32,0,0,1,.48-3,3.85,3.85,0,0,1,2.36-2,7.12,7.12,0,0,1,3-.18,15.07,15.07,0,0,1,2.84.67,27.25,27.25,0,0,1,2.69,1.08c0.43,0.22.87,0.42,1.29,0.65l0.64,0.34,0.16,0.08,0,0s0,0,0,0h0l-0.08,0s-0.15-.1-0.06-0.05L16.4,6.88,16.24,6.8a0.09,0.09,0,0,1,0,0s0,0,0,0l0.08,0,0.08,0h0s-0.06,0,0,0l0,0-0.16-.07-0.66-.29c-0.44-.2-0.89-0.37-1.33-0.54a27.49,27.49,0,0,0-2.71-.9A9.54,9.54,0,0,0,6,4.9,3.08,3.08,0,0,0,4.17,6.58a5.46,5.46,0,0,0-.31,2.61,17.2,17.2,0,0,0,1.66,5.3,53.61,53.61,0,0,0,6.1,9.56,88.16,88.16,0,0,0,7.59,8.52,92.81,92.81,0,0,0,8.54,7.57,65.75,65.75,0,0,0,9.49,6.27,20.23,20.23,0,0,0,5.24,1.95c1.77,0.35,3.79.3,5.06-.95s1.49-3.3,1.28-5.14a22.28,22.28,0,0,0-1.51-5.51" transform="translate(-2.9 -3.71)"/></g></svg>